<svg width="177" height="65" viewBox="0 0 177 65" fill="none" xmlns="http://www.w3.org/2000/svg">
<path d="M0.727964 8.6694C0.33617 4.00349 4.01758 0 8.69991 0H168.3C172.982 0 176.664 4.00349 176.272 8.6694L172.211 57.033C171.863 61.1772 168.398 64.3636 164.239 64.3636H12.761C8.6022 64.3636 5.13702 61.1772 4.78903 57.033L0.727964 8.6694Z" fill="#FEF2EA"/>
<path d="M4.50666 12.4378C4.08061 7.75277 7.76944 3.71326 12.4738 3.71326H164.526C169.23 3.71326 172.919 7.75277 172.493 12.4378L168.77 53.3748C168.396 57.4954 164.941 60.6503 160.803 60.6503H16.1966C12.059 60.6503 8.60416 57.4954 8.22944 53.3748L4.50666 12.4378Z" fill="#FEBBBB"/>
<path d="M8.30618 16.2226C7.83523 11.5131 11.5335 7.42657 16.2665 7.42657H160.734C165.467 7.42657 169.165 11.5131 168.694 16.2226L165.343 49.7331C164.934 53.8227 161.492 56.9371 157.382 56.9371H19.6175C15.5075 56.9371 12.0662 53.8227 11.6572 49.7331L8.30618 16.2226Z" fill="url(#paint0_linear_33_14)"/>
<defs>
<linearGradient id="paint0_linear_33_14" x1="141.5" y1="-5.00001" x2="32" y2="170" gradientUnits="userSpaceOnUse">
<stop stop-color="#671111"/>
<stop offset="1" stop-color="#F59090"/>
</linearGradient>
</defs>
</svg>
