<svg
  width="15"
  height="24"
  viewBox="0 0 15 24"
  fill="none"
  xmlns="http://www.w3.org/2000/svg"
>
  <path d="M8.12696 0H6.09521V2H8.12696V0Z" fill="white" />
  <path d="M10.1587 0H8.12695V2H10.1587V0Z" fill="white" />
  <path d="M12.1904 0H10.1587V2H12.1904V0Z" fill="white" />
  <path d="M14.2222 0H12.1904V2H14.2222V0Z" fill="white" />
  <path d="M6.09522 2H4.06348V4H6.09522V2Z" fill="white" />
  <path d="M8.12696 2H6.09521V4H8.12696V2Z" fill="white" />
  <path d="M10.1587 2H8.12695V4H10.1587V2Z" fill="white" />
  <path d="M12.1904 2H10.1587V4H12.1904V2Z" fill="white" />
  <path d="M14.2222 2H12.1904V4H14.2222V2Z" fill="white" />
  <path d="M6.09522 4H4.06348V6H6.09522V4Z" fill="white" />
  <path d="M8.12696 4H6.09521V6H8.12696V4Z" fill="white" />
  <path d="M6.09522 6H4.06348V8H6.09522V6Z" fill="white" />
  <path d="M8.12696 6H6.09521V8H8.12696V6Z" fill="white" />
  <path d="M2.03175 8H0V10H2.03175V8Z" fill="white" />
  <path d="M4.06348 8H2.03174V10H4.06348V8Z" fill="white" />
  <path d="M6.09522 8H4.06348V10H6.09522V8Z" fill="white" />
  <path d="M8.12696 8H6.09521V10H8.12696V8Z" fill="white" />
  <path d="M10.1587 8H8.12695V10H10.1587V8Z" fill="white" />
  <path d="M12.1904 8H10.1587V10H12.1904V8Z" fill="white" />
  <path d="M14.2222 8H12.1904V10H14.2222V8Z" fill="white" />
  <path d="M2.03175 10H0V12H2.03175V10Z" fill="white" />
  <path d="M4.06348 10H2.03174V12H4.06348V10Z" fill="white" />
  <path d="M6.09522 10H4.06348V12H6.09522V10Z" fill="white" />
  <path d="M8.12696 10H6.09521V12H8.12696V10Z" fill="white" />
  <path d="M10.1587 10H8.12695V12H10.1587V10Z" fill="white" />
  <path d="M12.1904 10H10.1587V12H12.1904V10Z" fill="white" />
  <path d="M6.09522 12H4.06348V14H6.09522V12Z" fill="white" />
  <path d="M8.12696 12H6.09521V14H8.12696V12Z" fill="white" />
  <path d="M6.09522 14H4.06348V16H6.09522V14Z" fill="white" />
  <path d="M8.12696 14H6.09521V16H8.12696V14Z" fill="white" />
  <path d="M6.09522 16H4.06348V18H6.09522V16Z" fill="white" />
  <path d="M8.12696 16H6.09521V18H8.12696V16Z" fill="white" />
  <path d="M6.09522 18H4.06348V20H6.09522V18Z" fill="white" />
  <path d="M8.12696 18H6.09521V20H8.12696V18Z" fill="white" />
  <path d="M6.09522 20H4.06348V22H6.09522V20Z" fill="white" />
  <path d="M8.12696 20H6.09521V22H8.12696V20Z" fill="white" />
  <path d="M6.09522 22H4.06348V24H6.09522V22Z" fill="#D1D1D1" />
  <path d="M8.12696 22H6.09521V24H8.12696V22Z" fill="#D1D1D1" />
</svg>