<svg
  width="18"
  height="18"
  viewBox="0 0 18 18"
  fill="none"
  xmlns="http://www.w3.org/2000/svg"
>
  <path d="M1.8 0H0V1.8H1.8V0Z" fill="white" />
  <path d="M3.5998 0H1.7998V1.8H3.5998V0Z" fill="white" />
  <path d="M1.8 1.79999H0V3.59999H1.8V1.79999Z" fill="white" />
  <path d="M3.5998 1.79999H1.7998V3.59999H3.5998V1.79999Z" fill="white" />
  <path d="M1.8 5.39996H0V7.19996H1.8V5.39996Z" fill="white" />
  <path d="M3.5998 5.39996H1.7998V7.19996H3.5998V5.39996Z" fill="white" />
  <path d="M9.0002 5.39996H7.2002V7.19996H9.0002V5.39996Z" fill="white" />
  <path d="M10.8 5.39996H9V7.19996H10.8V5.39996Z" fill="white" />
  <path d="M14.3999 5.39996H12.5999V7.19996H14.3999V5.39996Z" fill="white" />
  <path d="M16.2001 5.39996H14.4001V7.19996H16.2001V5.39996Z" fill="white" />
  <path d="M1.8 7.20001H0V9.00001H1.8V7.20001Z" fill="white" />
  <path d="M3.5998 7.20001H1.7998V9.00001H3.5998V7.20001Z" fill="white" />
  <path d="M9.0002 7.20001H7.2002V9.00001H9.0002V7.20001Z" fill="white" />
  <path d="M10.8 7.20001H9V9.00001H10.8V7.20001Z" fill="white" />
  <path d="M12.5998 7.20001H10.7998V9.00001H12.5998V7.20001Z" fill="white" />
  <path d="M14.3999 7.20001H12.5999V9.00001H14.3999V7.20001Z" fill="white" />
  <path d="M16.2001 7.20001H14.4001V9.00001H16.2001V7.20001Z" fill="white" />
  <path d="M18.0002 7.20001H16.2002V9.00001H18.0002V7.20001Z" fill="white" />
  <path d="M1.8 9H0V10.8H1.8V9Z" fill="white" />
  <path d="M3.5998 9H1.7998V10.8H3.5998V9Z" fill="white" />
  <path d="M9.0002 9H7.2002V10.8H9.0002V9Z" fill="white" />
  <path d="M10.8 9H9V10.8H10.8V9Z" fill="white" />
  <path d="M16.2001 9H14.4001V10.8H16.2001V9Z" fill="white" />
  <path d="M18.0002 9H16.2002V10.8H18.0002V9Z" fill="white" />
  <path d="M1.8 10.8H0V12.6H1.8V10.8Z" fill="white" />
  <path d="M3.5998 10.8H1.7998V12.6H3.5998V10.8Z" fill="white" />
  <path d="M9.0002 10.8H7.2002V12.6H9.0002V10.8Z" fill="white" />
  <path d="M10.8 10.8H9V12.6H10.8V10.8Z" fill="white" />
  <path d="M16.2001 10.8H14.4001V12.6H16.2001V10.8Z" fill="white" />
  <path d="M18.0002 10.8H16.2002V12.6H18.0002V10.8Z" fill="white" />
  <path d="M1.8 12.6H0V14.4H1.8V12.6Z" fill="white" />
  <path d="M3.5998 12.6H1.7998V14.4H3.5998V12.6Z" fill="white" />
  <path d="M9.0002 12.6H7.2002V14.4H9.0002V12.6Z" fill="white" />
  <path d="M10.8 12.6H9V14.4H10.8V12.6Z" fill="white" />
  <path d="M16.2001 12.6H14.4001V14.4H16.2001V12.6Z" fill="white" />
  <path d="M18.0002 12.6H16.2002V14.4H18.0002V12.6Z" fill="white" />
  <path d="M1.8 14.4H0V16.2H1.8V14.4Z" fill="white" />
  <path d="M3.5998 14.4H1.7998V16.2H3.5998V14.4Z" fill="white" />
  <path d="M9.0002 14.4H7.2002V16.2H9.0002V14.4Z" fill="white" />
  <path d="M10.8 14.4H9V16.2H10.8V14.4Z" fill="white" />
  <path d="M16.2001 14.4H14.4001V16.2H16.2001V14.4Z" fill="white" />
  <path d="M18.0002 14.4H16.2002V16.2H18.0002V14.4Z" fill="white" />
  <path d="M1.8 16.2H0V18H1.8V16.2Z" fill="white" />
  <path d="M3.5998 16.2H1.7998V18H3.5998V16.2Z" fill="white" />
  <path d="M9.0002 16.2H7.2002V18H9.0002V16.2Z" fill="white" />
  <path d="M10.8 16.2H9V18H10.8V16.2Z" fill="white" />
  <path d="M16.2001 16.2H14.4001V18H16.2001V16.2Z" fill="white" />
  <path d="M18.0002 16.2H16.2002V18H18.0002V16.2Z" fill="white" />
</svg>